<svg width="276" height="388" viewBox="0 0 276 388" fill="none" xmlns="http://www.w3.org/2000/svg">
<path d="M120.939 0.48999H166.763L116.587 89.834L165.483 182.25H117.867L78.187 99.306C79.467 111.85 79.467 127.466 79.467 182.25H38.763V0.48999H79.467C79.467 53.994 79.467 68.586 78.187 79.338L120.939 0.48999ZM234.401 0.48999L237.985 182.25H196.513L197.281 144.362H149.665C143.777 155.626 137.377 168.426 130.209 182.25H86.177L186.017 0.48999H234.401ZM166.561 111.082H198.049C199.073 65.77 200.353 46.826 202.913 33.002C198.305 47.082 189.601 65.77 166.561 111.082ZM275.796 387.25H232.02C228.436 373.426 225.364 360.626 222.548 349.362H174.932L165.716 387.25H123.988L175.188 205.49H223.572L275.796 387.25ZM182.868 316.082H214.356C202.836 268.722 199.252 250.29 198.228 236.21C197.46 250.546 194.132 268.722 182.868 316.082Z" fill="#D03129" style="fill:#D03129;fill:color(display-p3 0.8157 0.1922 0.1608);fill-opacity:1;"/>
<path d="M127.488 205.49H176.64L101.376 298.418L126.464 387.25H81.92L61.696 302.258C59.904 315.314 56.064 329.394 40.704 387.25H-3.8147e-06L48.64 205.49H89.344C76.288 254.642 71.68 271.026 67.84 281.522L127.488 205.49Z" fill="#D03129" fill-opacity="0.81" style="fill:#D03129;fill:color(display-p3 0.8157 0.1922 0.1608);fill-opacity:0.81;"/>
</svg>
